<?xml version="1.0" encoding="UTF-8" standalone="no"?>
<svg width="103px" height="111px" viewBox="0 0 103 111" version="1.1" xmlns="http://www.w3.org/2000/svg" xmlns:xlink="http://www.w3.org/1999/xlink" xmlns:sketch="http://www.bohemiancoding.com/sketch/ns">
    <!-- Generator: Sketch 3.3 (11970) - http://www.bohemiancoding.com/sketch -->
    <title>medecine@1x</title>
    <desc>Created with Sketch.</desc>
    <defs></defs>
    <g id="Page-1" stroke="none" stroke-width="1" fill="none" fill-rule="evenodd" sketch:type="MSPage">
        <g id="02-3" sketch:type="MSArtboardGroup" transform="translate(-439.000000, -307.000000)" fill="#5BBEBD">
            <g id="medecine" sketch:type="MSLayerGroup" transform="translate(440.000000, 307.000000)">
                <path d="M100.642977,36.8043617 C100.041674,31.1405319 95.849,23.7576596 91.3227907,20.3979787 C91.3227907,20.3979787 84.559314,15.3765957 76.067093,10.395 C67.5713488,5.40989362 59.9129651,1.96361702 59.9129651,1.96361702 C57.3503837,0.81212766 53.9715814,0.237553191 50.5939535,0.237553191 C47.2151512,0.237553191 43.8375233,0.81212766 41.2749419,1.96361702 C41.2749419,1.96361702 33.6142093,5.40989362 25.1196395,10.395 C16.6262442,15.3765957 9.86394186,20.3979787 9.86394186,20.3979787 C5.33773256,23.7576596 1.14388372,31.1405319 0.543755814,36.8043617 C0.543755814,36.8043617 -0.352325581,45.2696809 -0.352325581,55.2375532 C-0.352325581,65.2054255 0.543755814,73.6719149 0.543755814,73.6719149 C1.14388372,79.3334043 5.33773256,86.7162766 9.86159302,90.073617 C9.86159302,90.073617 16.6262442,95.0985106 25.1196395,100.085957 C33.6142093,105.067553 41.2749419,108.511489 41.2749419,108.511489 C43.8375233,109.661809 47.2151512,110.237553 50.5939535,110.237553 C53.9715814,110.237553 57.3503837,109.661809 59.9129651,108.511489 C59.9129651,108.511489 67.5713488,105.067553 76.0647442,100.085957 C84.559314,95.0985106 91.3227907,90.073617 91.3227907,90.073617 C95.849,86.7162766 100.041674,79.3334043 100.642977,73.6719149 C100.642977,73.6719149 101.537884,65.2054255 101.537884,55.2375532 C101.537884,45.2696809 100.642977,36.8043617 100.642977,36.8043617 L100.642977,36.8043617 Z M95.9711395,73.1792553 C95.5037209,77.5792553 92.0215698,83.7193617 88.5171047,86.3207447 C88.4501628,86.3698936 81.8358372,91.2637234 73.6830233,96.052234 C65.5255116,100.834894 58.0538605,104.212128 57.9822209,104.244894 C56.1242907,105.078085 53.4313488,105.556702 50.5939535,105.556702 C47.7553837,105.556702 45.0624419,105.078085 43.2080349,104.246064 C43.1340465,104.212128 35.6588721,100.834894 27.5048837,96.0534043 C19.3485465,91.2637234 12.7342209,86.3698936 12.6684535,86.3195745 C9.16398837,83.7193617 5.68183721,77.5792553 5.21559302,73.1804255 C5.20737209,73.0973404 4.34534884,64.8485106 4.34534884,55.2375532 C4.34534884,45.6546809 5.20737209,37.3765957 5.21559302,37.2946809 C5.68066279,32.8958511 9.16516279,26.7545745 12.6708023,24.1520213 C12.7365698,24.1028723 19.3473721,19.211383 27.5037093,14.4287234 C35.6600465,9.64138298 43.1340465,6.26414894 43.2068605,6.23138298 C45.0636163,5.39585106 47.7565581,4.91723404 50.5939535,4.91723404 C53.4313488,4.91723404 56.1242907,5.39585106 57.9786977,6.23021277 C58.052686,6.26297872 65.5255116,9.64138298 73.6841977,14.4287234 C81.8370116,19.211383 88.4513372,24.1040426 88.5171047,24.1520213 C92.0203953,26.7534043 95.5037209,32.8958511 95.9711395,37.2946809 C95.9793605,37.3765957 96.8413837,45.6265957 96.8413837,55.2375532 C96.8413837,64.8215957 95.9793605,73.0985106 95.9711395,73.1792553 L95.9711395,73.1792553 Z" id="Fill-1" sketch:type="MSShapeGroup"></path>
                <path d="M73.4622326,43.087234 L63.3422674,43.087234 L63.3422674,33.0035106 C63.3422674,30.4185106 61.2388837,28.3226596 58.644593,28.3226596 L43.8257791,28.3226596 C41.2314884,28.3226596 39.1281047,30.4185106 39.1281047,33.0035106 L39.1281047,43.087234 L29.0081395,43.087234 C26.4138488,43.087234 24.3104651,45.1830851 24.3104651,47.7680851 L24.3104651,62.5338298 C24.3104651,65.1188298 26.4138488,67.2146809 29.0081395,67.2146809 L39.1281047,67.2146809 L39.1281047,77.2984043 C39.1281047,79.8834043 41.2314884,81.9792553 43.8257791,81.9792553 L58.644593,81.9792553 C61.2388837,81.9792553 63.3422674,79.8834043 63.3422674,77.2984043 L63.3422674,67.2146809 L73.4622326,67.2146809 C76.0565233,67.2146809 78.159907,65.1188298 78.159907,62.5338298 L78.159907,47.7680851 C78.159907,45.1830851 76.0565233,43.087234 73.4622326,43.087234 L73.4622326,43.087234 Z M73.4622326,62.5338298 L58.644593,62.5338298 L58.644593,77.2984043 L43.8257791,77.2984043 L43.8257791,62.5338298 L29.0081395,62.5338298 L29.0081395,47.7680851 L43.8257791,47.7680851 L43.8257791,33.0035106 L58.644593,33.0035106 L58.644593,47.7680851 L73.4622326,47.7680851 L73.4622326,62.5338298 L73.4622326,62.5338298 Z" id="Fill-2" sketch:type="MSShapeGroup"></path>
            </g>
        </g>
    </g>
</svg>