<svg id="Слой_2" data-name="Слой 2" xmlns="http://www.w3.org/2000/svg" viewBox="0 0 404.1 189.43"><title>doc</title><rect x="0.05" y="0.05" width="404" height="189.33" style="fill:none;stroke:#878787;stroke-miterlimit:10;stroke-width:0.10000000149011612px"/><g id="Page-1"><g id="_02-3" data-name="02-3"><g id="medecine"><path id="Fill-1" d="M73.73,42.58a15.62,15.62,0,0,0-5.41-9.52s-3.92-2.91-8.85-5.8-9.37-4.89-9.37-4.89a13.67,13.67,0,0,0-5.4-1,13.67,13.67,0,0,0-5.4,1s-4.44,2-9.37,4.89-8.85,5.8-8.85,5.8a15.62,15.62,0,0,0-5.41,9.52s-0.52,4.91-.52,10.69S15.68,64,15.68,64a15.61,15.61,0,0,0,5.4,9.51s3.92,2.91,8.85,5.81,9.37,4.89,9.37,4.89a13.68,13.68,0,0,0,5.4,1,13.68,13.68,0,0,0,5.4-1s4.44-2,9.37-4.89,8.85-5.81,8.85-5.81A15.61,15.61,0,0,0,73.73,64s0.52-4.91.52-10.69-0.52-10.69-.52-10.69h0ZM71,63.68A12.89,12.89,0,0,1,66.7,71.3s-3.88,2.87-8.6,5.64S49,81.68,49,81.7a11,11,0,0,1-4.29.76,11,11,0,0,1-4.28-.76s-4.38-2-9.11-4.75-8.57-5.62-8.6-5.65a12.88,12.88,0,0,1-4.32-7.62s-0.5-4.83-.5-10.41,0.5-10.36.5-10.41a12.88,12.88,0,0,1,4.32-7.62s3.87-2.87,8.6-5.64,9.07-4.74,9.11-4.75a11,11,0,0,1,4.28-.76,11,11,0,0,1,4.28.76s4.38,2,9.11,4.76,8.56,5.61,8.6,5.64A12.9,12.9,0,0,1,71,42.87s0.5,4.83.5,10.41S71,63.63,71,63.68h0Z" transform="translate(0.05 0.05)" style="fill:#5bbebd"/><path id="Fill-2" d="M58,46.23H52.1V40.38a2.72,2.72,0,0,0-2.72-2.71H40.78a2.72,2.72,0,0,0-2.72,2.71v5.85H32.19a2.72,2.72,0,0,0-2.72,2.71V57.5a2.72,2.72,0,0,0,2.72,2.71h5.87v5.85a2.72,2.72,0,0,0,2.72,2.71h8.59a2.72,2.72,0,0,0,2.72-2.71V60.22H58a2.72,2.72,0,0,0,2.72-2.71V48.94A2.72,2.72,0,0,0,58,46.23h0ZM58,57.5H49.37v8.56H40.78V57.5H32.19V48.94h8.59V40.38h8.59v8.56H58V57.5h0Z" transform="translate(0.05 0.05)" style="fill:#5bbebd"/></g></g></g><text transform="translate(92.05 44.42)" style="font-size:15.466109275817871px;font-family:ALS Ekibastuz ;font-weight:700">Запиши<tspan x="56.54" y="0">т</tspan><tspan x="63.53" y="0">есь </tspan><tspan x="90.78" y="0">к</tspan><tspan x="98.32" y="0">о врачу п</tspan><tspan x="165.75" y="0">р</tspan><tspan x="174.35" y="0">ямо из </tspan><tspan x="228.71" y="0">до</tspan><tspan x="246.02" y="0">ма</tspan></text><text transform="translate(90.72 74.59)" style="font-size:12px;font-family:ALS Ekibastuz ">Вы м<tspan x="27.67" y="0">ож</tspan><tspan x="42.19" y="0">е</tspan><tspan x="48.18" y="0">т</tspan><tspan x="53.64" y="0">е запис</tspan><tspan x="95.11" y="0">а</tspan><tspan x="101.22" y="0">т</tspan><tspan x="106.92" y="0">ь</tspan><tspan x="112.52" y="0">ся к ин</tspan><tspan x="151.19" y="0">т</tspan><tspan x="156.65" y="0">ересующе</tspan><tspan x="213.69" y="0">м</tspan><tspan x="222.62" y="0">у вас </tspan><tspan x="0" y="14.4">в</tspan><tspan x="6.35" y="14.4">р</tspan><tspan x="12.92" y="14.4">ачу через сайт </tspan><tspan x="98.27" y="14.4" style="letter-spacing:-1px">Г</tspan><tspan x="103.09" y="14.4">ос</tspan><tspan x="115.58" y="14.4">у</tspan><tspan x="121.59" y="14.4">слуги. Выбери</tspan><tspan x="201.18" y="14.4">т</tspan><tspan x="206.64" y="14.4">е нужно</tspan><tspan x="251.28" y="14.4">г</tspan><tspan x="255.85" y="14.4">о </tspan><tspan x="0" y="28.8">специ</tspan><tspan x="32.89" y="28.8">а</tspan><tspan x="39" y="28.8">лис</tspan><tspan x="58.61" y="28.8">т</tspan><tspan x="63.83" y="28.8">а, </tspan><tspan x="76.48" y="28.8">д</tspan><tspan x="83.66" y="28.8">а</tspan><tspan x="89.77" y="28.8">ту и </tspan><tspan x="115.09" y="28.8">у</tspan><tspan x="120.98" y="28.8">добное время посещения</tspan></text><path d="M93.44,140.68H215.69a2.87,2.87,0,0,1,2.87,2.87v21.58a2.87,2.87,0,0,1-2.87,2.87H93.44a2.88,2.88,0,0,1-2.87-2.87V143.55A2.87,2.87,0,0,1,93.44,140.68Z" style="fill:#0063b0"/><text transform="translate(123.29 157.86)" style="font-size:12px;fill:#fff;font-family:ALS Ekibastuz ;font-weight:700">Запис<tspan x="32.83" y="0">а</tspan><tspan x="38.94" y="0">ться</tspan></text></svg>
